<svg width="128" height="128" viewBox="0 0 128 128" fill="none" xmlns="http://www.w3.org/2000/svg">
<path fill-rule="evenodd" clip-rule="evenodd" d="M41.5 0C40.1193 0 39 1.11929 39 2.5V36H2.5C1.11929 36 0 37.1193 0 38.5C0 39.8807 1.11929 41 2.5 41H39V83H2.5C1.11929 83 0 84.1193 0 85.5C0 86.8807 1.11929 88 2.5 88H39V125.5C39 126.881 40.1193 128 41.5 128C42.8807 128 44 126.881 44 125.5V88H86V125.5C86 126.881 87.1193 128 88.5 128C89.8807 128 91 126.881 91 125.5V88H125.5C126.881 88 128 86.8807 128 85.5C128 84.1193 126.881 83 125.5 83H91V41H125.5C126.881 41 128 39.8807 128 38.5C128 37.1193 126.881 36 125.5 36H91V2.5C91 1.11929 89.8807 0 88.5 0C87.1193 0 86 1.11929 86 2.5V36H44V2.5C44 1.11929 42.8807 0 41.5 0ZM86 83V41H44V83H86Z" fill="#9CB8FF"/>
</svg>
